<?xml version="1.0" encoding="UTF-8"?>
<svg width="150px" height="40px" viewBox="0 0 150 40" version="1.1" xmlns="http://www.w3.org/2000/svg" xmlns:xlink="http://www.w3.org/1999/xlink">
    <!-- Generator: Sketch 51.3 (57544) - http://www.bohemiancoding.com/sketch -->
    <title>Logo/Shaper</title>
    <desc>Created with Sketch.</desc>
    <defs></defs>
    <g id="Landing" stroke="none" stroke-width="1" fill="none" fill-rule="evenodd">
        <g id="Template_Large_Desktop" transform="translate(-160.000000, -24.000000)">
            <g id="Header" transform="translate(160.000000, 16.000000)">
                <g id="Logo/Shaper" transform="translate(0.000000, 8.000000)">
                    <rect id="Rectangle" stroke="#25232E" stroke-width="4" fill-rule="nonzero" x="42" y="2" width="106" height="36"></rect>
                    <g id="Logo/Isologo">
                        <rect id="Combined-Shape" fill="#25232E" fill-rule="nonzero" x="0" y="0" width="40" height="40"></rect>
                        <path d="M28.3333333,28.7620773 C28.3333333,27.2886473 29.4498382,26.25 30.8333333,26.25 C32.2411003,26.25 33.3333333,27.2886473 33.3333333,28.7620773 C33.3333333,30.2355072 32.2411003,31.25 30.8333333,31.25 C29.4498382,31.25 28.3333333,30.2355072 28.3333333,28.7620773 Z" id="S." fill="#FCDB01" fill-rule="evenodd"></path>
                        <path d="M17.8998073,31.25 C14.6885035,31.25 11.8625562,30.2804709 10.3532434,29.0847184 L10,23.4614497 L11.701991,23.4614497 C12.504817,27.0810249 14.6563905,29.6987535 17.8998073,29.6987535 C20.179833,29.6987535 21.6570328,28.5999538 21.6570328,26.5962604 C21.6570328,24.495614 20.3082852,23.5907202 16.743738,22.4919206 C12.4727039,21.2315328 10.1284522,19.1308864 10.1284522,15.2204524 C10.1284522,10.728301 13.5324342,7.91666667 18.2851638,7.91666667 C21.2074502,7.91666667 23.6480411,8.69228994 25.22158,9.85572484 L25.22158,14.7680055 L23.7764933,14.7680055 C23.0378934,11.5039243 21.2716763,9.43559557 18.2851638,9.43559557 C16.2941554,9.43559557 14.9775209,10.5990305 14.9775209,12.4411357 C14.9775209,14.5417821 16.2620424,15.4143583 19.5696853,16.416205 C23.8407193,17.7412281 26.6666667,19.4540628 26.6666667,23.9785319 C26.6666667,28.9554478 22.716763,31.25 17.8998073,31.25 Z" id="S." fill="#FCDB01" fill-rule="evenodd"></path>
                    </g>
                    <path d="M59.2916667,27.7166667 C57.125,27.7166667 55.2183333,27.0666667 54.2,26.265 L53.9616667,22.495 L55.11,22.495 C55.6516667,24.9216667 57.1033333,26.6766667 59.2916667,26.6766667 C60.83,26.6766667 61.8266667,25.94 61.8266667,24.5966667 C61.8266667,23.1883333 60.9166667,22.5816667 58.5116667,21.845 C55.63,21 54.0483333,19.5916667 54.0483333,16.97 C54.0483333,13.9583333 56.345,12.0733333 59.5516667,12.0733333 C61.5233333,12.0733333 63.17,12.5933333 64.2316667,13.3733333 L64.2316667,16.6666667 L63.2566667,16.6666667 C62.7583333,14.4783333 61.5666667,13.0916667 59.5516667,13.0916667 C58.2083333,13.0916667 57.32,13.8716667 57.32,15.1066667 C57.32,16.515 58.1866667,17.1 60.4183333,17.7716667 C63.3,18.66 65.2066667,19.8083333 65.2066667,22.8416667 C65.2066667,26.1783333 62.5416667,27.7166667 59.2916667,27.7166667 Z M68.025,25.81 L68.025,12.7883333 L66.8333333,12.1816667 L66.8333333,11.5316667 L71.3616667,10.535 L72.0333333,10.535 L72.0333333,17.7716667 C72.8566667,16.7316667 74.0916667,15.605 76.0633333,15.605 C78.1433333,15.605 79.335,16.7966667 79.335,19.1583333 L79.335,25.81 C79.335,26.5033333 79.6816667,26.59 80.5483333,26.655 L80.5483333,27.5 L74.1783333,27.5 L74.1783333,26.655 C75.045,26.59 75.3266667,26.5033333 75.3266667,25.81 L75.3266667,19.4833333 C75.3266667,18.53 75.0016667,17.9666667 73.875,17.9666667 C73.1816667,17.9666667 72.575,18.1616667 72.0333333,18.4433333 L72.0333333,25.81 C72.0333333,26.5033333 72.315,26.59 73.1816667,26.655 L73.1816667,27.5 L66.8116667,27.5 L66.8116667,26.655 C67.6783333,26.59 68.025,26.5033333 68.025,25.81 Z M87.1583334,25.5716667 C87.505,25.5716667 87.765,25.4633333 88.1116667,25.2683333 L88.1116667,21.26 L86.92,21.715 C86.1616667,21.9966667 85.6633334,22.4083333 85.6633334,23.6433333 C85.6633334,24.7483333 86.075,25.5716667 87.1583334,25.5716667 Z M92.055,19.375 L92.055,25.1166667 C92.055,25.6366667 92.12,26.0916667 92.64,26.0916667 C92.9433334,26.0916667 93.225,26.0266667 93.3766667,25.9616667 L93.5283334,26.5466667 C92.8133334,27.2616667 91.8816667,27.7166667 90.6683334,27.7166667 C89.4116667,27.7166667 88.5016667,27.045 88.1766667,25.8966667 C87.5483334,26.8066667 86.5083334,27.6516667 84.905,27.6516667 C83.085,27.6516667 81.8066667,26.6116667 81.8066667,24.7483333 C81.8066667,22.8633333 83.1283334,22.0833333 84.6666667,21.5416667 L88.1116667,20.3283333 L88.1116667,18.1183333 C88.1116667,17.1216667 87.83,16.45 86.985,16.45 C86.14,16.45 85.815,17.1433333 85.815,18.1616667 C85.815,18.66 85.9016667,19.1583333 86.01,19.6783333 L83.605,20.0033333 C82.9766667,19.7866667 82.5433334,19.2666667 82.5433334,18.4866667 C82.5433334,16.515 84.58,15.605 87.2016667,15.605 C90.235,15.605 92.055,16.5583333 92.055,19.375 Z M101.135,26.6983333 C102.695,26.6983333 103.54,24.705 103.54,22.1483333 C103.54,19.2883333 102.521667,17.9666667 100.875,17.9666667 C100.42,17.9666667 99.9866667,18.075 99.5966667,18.335 L99.5966667,24.4233333 C99.5966667,25.8316667 99.9866667,26.6983333 101.135,26.6983333 Z M95.5883334,30.4033333 L95.5883334,18.205 L94.3966667,17.4683333 L94.3966667,16.8616667 L98.925,15.605 L99.6833334,15.605 L99.5966667,17.7066667 C100.203333,16.7316667 101.395,15.605 103.236667,15.605 C105.793333,15.605 107.613333,17.3816667 107.613333,20.935 C107.613333,25.3766667 104.905,27.7166667 101.481667,27.7166667 C100.658333,27.7166667 99.965,27.565 99.5966667,27.2616667 L99.5966667,30.3166667 C99.5966667,31.0966667 99.9866667,31.14 101.265,31.2483333 L101.265,32.0933333 L94.375,32.0933333 L94.375,31.2483333 C95.2416667,31.1833333 95.5883334,31.0966667 95.5883334,30.4033333 Z M115.241667,15.605 C118.383333,15.605 119.986667,17.5983333 119.986667,20.35 L119.986667,20.8916667 L113.075,20.8916667 C113.031667,23.47 114.461667,25.0733333 116.433333,25.0733333 C117.82,25.0733333 118.838333,24.575 119.661667,23.4916667 L120.073333,23.7516667 C119.488333,26.135 117.82,27.7166667 115.09,27.7166667 C111.883333,27.7166667 109.456667,25.5716667 109.456667,21.9316667 C109.456667,18.075 112.121667,15.605 115.241667,15.605 Z M114.981667,16.515 C113.79,16.515 113.205,17.88 113.096667,19.895 L116.563333,19.895 C116.563333,17.7933333 116.151667,16.515 114.981667,16.515 Z M126.791667,19.765 L126.791667,25.485 C126.791667,26.4166667 127.29,26.5033333 128.525,26.655 L128.525,27.5 L121.591667,27.5 L121.591667,26.655 C122.458333,26.59 122.805,26.5033333 122.805,25.81 L122.805,18.205 L121.613333,17.4683333 L121.613333,16.8616667 L126.141667,15.605 L126.878333,15.605 L126.791667,18.9416667 C127.68,16.4066667 128.438333,15.605 129.803333,15.605 C130.301667,15.605 130.67,15.7566667 130.886667,15.9733333 L130.886667,18.985 L130.366667,18.985 C129.001667,18.985 127.788333,19.0283333 126.791667,19.765 Z M132.383333,25.485 C132.383333,24.1633333 133.38,23.2316667 134.615,23.2316667 C135.871667,23.2316667 136.846667,24.1633333 136.846667,25.485 C136.846667,26.8066667 135.871667,27.7166667 134.615,27.7166667 C133.38,27.7166667 132.383333,26.8066667 132.383333,25.485 Z" id="Shaper." fill="#292328" fill-rule="evenodd"></path>
                </g>
            </g>
        </g>
    </g>
</svg>